{"title":"London Has Fallen (2016) 1080p  Blu-ray x264 EN-Hindi AC3 5.1 ES","uid":15780509,"size":5314876118,"categoryP":"video","categoryS":"hd___movies","magnet":"?xt=urn:btih:710fd0a048d8626b9734b6b0cb20b5d82465f8f7&amp;dn=London+Has+Fallen+%282016%29+1080p++Blu-ray+x264+EN-Hindi+AC3+5.1+ES&amp;tr=udp%3A%2F%2Ftracker.leechers-paradise.org%3A6969&amp;tr=udp%3A%2F%2Fzer0day.ch%3A1337&amp;tr=udp%3A%2F%2Fopen.demonii.com%3A1337&amp;tr=udp%3A%2F%2Ftracker.coppersurfer.tk%3A6969&amp;tr=udp%3A%2F%2Fexodus.desync.com%3A6969","seeders":8,"leechers":14,"uploader":"SaM","files":3,"time":1473287317,"description":"1080p Blu-ray Rip x264\r\n\r\nHindi AC3 5.1 Original Audio\r\n\r\nEnglish AAC 5.1 Audio\r\n\r\n\r\n\r\nEnglish SDH Subtitle \r\n \nhttp://extraimago.com/image/wRWX \nhttp://extraimago.com/image/wRWP \nhttp://extraimago.com/image/wRWG \nhttp://extraimago.com/image/wRWr \nhttp://extraimago.com/image/wRWp \nhttp://extraimago.com/image/wRWY \nhttp://extraimago.com/image/wRWC \nhttp://extraimago.com/image/wRWB \nhttp://extraimago.com/image/wRW4 \nhttp://extraimago.com/image/wRWe \nhttp://extraimago.com/image/wRWZ \nhttp://extraimago.com/image/wRWK\r\n\r\nSpecs:\r\nSource: BD50 @ DDR\r\n\r\nFormat : Matroska\r\nFile size : 4.90 GiB\r\nDuration : 1 h 38 min\r\nOverall bit rate : 7 101 kb/s\r\nEncoded date : UTC 2016-09-07 11:26:36\r\nWriting application : mkvmerge v9.2.0 ('Photograph') 64bit\r\nWriting library : libebml v1.3.3 + libmatroska v1.4.4\r\n\r\nVideo\r\nID : 1\r\nFormat : AVC\r\nFormat/Info : Advanced Video Codec\r\nFormat profile :   \r\nFormat settings, CABAC : Yes\r\nFormat settings, ReFrames : 5 frames\r\nCodec ID : V_MPEG4/ISO/AVC\r\nDuration : 1 h 38 min\r\nBit rate : 6 491 kb/s\r\nWidth : 1 920 pixels\r\nHeight : 800 pixels\r\nDisplay aspect ratio : 2.40:1\r\nFrame rate mode : Constant\r\nFrame rate : 23.976 (24000/1001) FPS\r\nColor space : YUV\r\nChroma subsampling : 4:2:0\r\nBit depth : 8 bits\r\nScan type : Progressive\r\nBits/(Pixel*Frame) : 0.176\r\nStream size : 4.48 GiB (91%)\r\nDefault : Yes\r\nForced : No\r\nColor range : Limited\r\nColor primaries : BT.709\r\nTransfer characteristics : BT.709\r\nMatrix coefficients : BT.709\r\n\r\nAudio #1\r\nID : 2\r\nFormat : AC-3\r\nFormat/Info : Audio Coding 3\r\nMode extension : CM (complete main)\r\nFormat settings, Endianness : Big\r\nCodec ID : A_AC3\r\nDuration : 1 h 38 min\r\nBit rate mode : Constant\r\nBit rate : 448 kb/s\r\nChannel(s) : 6 channels\r\nChannel positions : Front: L C R, Side: L R, LFE\r\nSampling rate : 48.0 kHz\r\nFrame rate : 31.250 FPS (1536 spf)\r\nCompression mode : Lossy\r\nStream size : 316 MiB (6%)\r\nLanguage : Hindi\r\nDefault : Yes\r\nForced : No\r\n\r\nAudio #2\r\nID : 3\r\nFormat : AAC\r\nFormat/Info : Advanced Audio Codec\r\nFormat profile : LC\r\nCodec ID : A_AAC\r\nDuration : 1 h 38 min\r\nBit rate : 160 kb/s\r\nChannel(s) : 6 channels\r\nChannel positions : Front: L C R, Side: L R, LFE\r\nSampling rate : 48.0 kHz\r\nFrame rate : 46.875 FPS (1024 spf)\r\nCompression mode : Lossy\r\nDelay relative to video : 9 ms\r\nStream size : 113 MiB (2%)\r\nDefault : No\r\nForced : No\r\n\r\nText\r\nID : 4\r\nFormat : UTF-8\r\nCodec ID : S_TEXT/UTF8\r\nCodec ID/Info : UTF-8 Plain Text\r\nDuration : 1 h 31 min\r\nBit rate : 52 b/s\r\nCount of elements : 1188\r\nStream size : 35.3 KiB (0%)\r\nLanguage : English\r\nDefault : Yes\r\nForced : No\r\n\r\nSAMPLE Included","torrent":{"xt":"urn:btih:710fd0a048d8626b9734b6b0cb20b5d82465f8f7","amp;dn":"London+Has+Fallen+%282016%29+1080p++Blu-ray+x264+EN-Hindi+AC3+5.1+ES","amp;tr":["udp%3A%2F%2Ftracker.leechers-paradise.org%3A6969","udp%3A%2F%2Fzer0day.ch%3A1337","udp%3A%2F%2Fopen.demonii.com%3A1337","udp%3A%2F%2Ftracker.coppersurfer.tk%3A6969","udp%3A%2F%2Fexodus.desync.com%3A6969"],"infoHash":"710fd0a048d8626b9734b6b0cb20b5d82465f8f7","infoHashBuffer":{"type":"Buffer","data":[113,15,208,160,72,216,98,107,151,52,182,176,203,32,181,216,36,101,248,247]},"announce":[],"urlList":[]}}